<svg xmlns="http://www.w3.org/2000/svg" width="1120" height="650" viewBox="0 0 1120 650">
<rect width="100%" height="100%" fill="white"/>
<style>text{font-family:Arial,sans-serif;fill:#222}.grid{stroke:#ddd;stroke-width:1}.axis{stroke:#333;stroke-width:1.5}</style>
<text x="560.0" y="38" text-anchor="middle" font-size="24" font-weight="bold">Heavy-to-normal mean waiting-time ratio</text>
<line class="grid" x1="100" y1="538.00" x2="790" y2="538.00"/>
<text x="88" y="543.00" text-anchor="end" font-size="14">0</text>
<line class="grid" x1="100" y1="447.60" x2="790" y2="447.60"/>
<text x="88" y="452.60" text-anchor="end" font-size="14">4</text>
<line class="grid" x1="100" y1="357.20" x2="790" y2="357.20"/>
<text x="88" y="362.20" text-anchor="end" font-size="14">9</text>
<line class="grid" x1="100" y1="266.80" x2="790" y2="266.80"/>
<text x="88" y="271.80" text-anchor="end" font-size="14">13</text>
<line class="grid" x1="100" y1="176.40" x2="790" y2="176.40"/>
<text x="88" y="181.40" text-anchor="end" font-size="14">17</text>
<line class="grid" x1="100" y1="86.00" x2="790" y2="86.00"/>
<text x="88" y="91.00" text-anchor="end" font-size="14">22</text>
<line class="axis" x1="100" y1="86" x2="100" y2="538"/>
<line class="axis" x1="100" y1="538" x2="790" y2="538"/>
<text x="445.0" y="622" text-anchor="middle" font-size="17">Per-user hard quota (GPUs; unlimited baseline)</text>
<text x="26" y="312.0" text-anchor="middle" font-size="17" transform="rotate(-90 26 312.0)">Heavy / normal mean wait (ratio)</text>
<text x="100.00" y="566" text-anchor="middle" font-size="14">Unlimited</text>
<text x="330.00" y="566" text-anchor="middle" font-size="14">1</text>
<text x="560.00" y="566" text-anchor="middle" font-size="14">2</text>
<text x="790.00" y="566" text-anchor="middle" font-size="14">4</text>
<path d="M 100.00 516.86 L 330.00 321.41 L 560.00 183.46 L 790.00 463.11" fill="none" stroke="#b33b3b" stroke-width="3"/>
<line x1="100.00" y1="517.88" x2="100.00" y2="515.84" stroke="#b33b3b" stroke-width="2"/>
<line x1="94.00" y1="517.88" x2="106.00" y2="517.88" stroke="#b33b3b" stroke-width="2"/>
<line x1="94.00" y1="515.84" x2="106.00" y2="515.84" stroke="#b33b3b" stroke-width="2"/>
<circle cx="100.00" cy="516.86" r="5" fill="#b33b3b"/>
<line x1="330.00" y1="340.91" x2="330.00" y2="301.91" stroke="#b33b3b" stroke-width="2"/>
<line x1="324.00" y1="340.91" x2="336.00" y2="340.91" stroke="#b33b3b" stroke-width="2"/>
<line x1="324.00" y1="301.91" x2="336.00" y2="301.91" stroke="#b33b3b" stroke-width="2"/>
<circle cx="330.00" cy="321.41" r="5" fill="#b33b3b"/>
<line x1="560.00" y1="232.49" x2="560.00" y2="134.43" stroke="#b33b3b" stroke-width="2"/>
<line x1="554.00" y1="232.49" x2="566.00" y2="232.49" stroke="#b33b3b" stroke-width="2"/>
<line x1="554.00" y1="134.43" x2="566.00" y2="134.43" stroke="#b33b3b" stroke-width="2"/>
<circle cx="560.00" cy="183.46" r="5" fill="#b33b3b"/>
<line x1="790.00" y1="471.18" x2="790.00" y2="455.05" stroke="#b33b3b" stroke-width="2"/>
<line x1="784.00" y1="471.18" x2="796.00" y2="471.18" stroke="#b33b3b" stroke-width="2"/>
<line x1="784.00" y1="455.05" x2="796.00" y2="455.05" stroke="#b33b3b" stroke-width="2"/>
<circle cx="790.00" cy="463.11" r="5" fill="#b33b3b"/>
<path d="M 100.00 530.01 L 330.00 421.17 L 560.00 415.69 L 790.00 499.20" fill="none" stroke="#548235" stroke-width="3"/>
<line x1="100.00" y1="530.06" x2="100.00" y2="529.95" stroke="#548235" stroke-width="2"/>
<line x1="94.00" y1="530.06" x2="106.00" y2="530.06" stroke="#548235" stroke-width="2"/>
<line x1="94.00" y1="529.95" x2="106.00" y2="529.95" stroke="#548235" stroke-width="2"/>
<circle cx="100.00" cy="530.01" r="5" fill="#548235"/>
<line x1="330.00" y1="422.96" x2="330.00" y2="419.38" stroke="#548235" stroke-width="2"/>
<line x1="324.00" y1="422.96" x2="336.00" y2="422.96" stroke="#548235" stroke-width="2"/>
<line x1="324.00" y1="419.38" x2="336.00" y2="419.38" stroke="#548235" stroke-width="2"/>
<circle cx="330.00" cy="421.17" r="5" fill="#548235"/>
<line x1="560.00" y1="417.61" x2="560.00" y2="413.78" stroke="#548235" stroke-width="2"/>
<line x1="554.00" y1="417.61" x2="566.00" y2="417.61" stroke="#548235" stroke-width="2"/>
<line x1="554.00" y1="413.78" x2="566.00" y2="413.78" stroke="#548235" stroke-width="2"/>
<circle cx="560.00" cy="415.69" r="5" fill="#548235"/>
<line x1="790.00" y1="499.80" x2="790.00" y2="498.61" stroke="#548235" stroke-width="2"/>
<line x1="784.00" y1="499.80" x2="796.00" y2="499.80" stroke="#548235" stroke-width="2"/>
<line x1="784.00" y1="498.61" x2="796.00" y2="498.61" stroke="#548235" stroke-width="2"/>
<circle cx="790.00" cy="499.20" r="5" fill="#548235"/>
<line x1="826" y1="98" x2="856" y2="98" stroke="#b33b3b" stroke-width="3"/>
<text x="866" y="103" font-size="14">B heavy user</text>
<line x1="826" y1="132" x2="856" y2="132" stroke="#548235" stroke-width="3"/>
<text x="866" y="137" font-size="14">C burst user</text>
<text x="100" y="620" font-size="12" fill="#555">Points are across-seed means; bars show two-sided 95% Student-t confidence intervals.</text>
</svg>
